<mxfile host="app.diagrams.net" modified="2024-01-16T19:59:24.153Z" agent="Mozilla/5.0 (Windows NT 10.0; Win64; x64; rv:121.0) Gecko/20100101 Firefox/121.0" version="22.1.17" etag="l-trVAWRVG2KlYDo8Mqc" type="github">
  <diagram name="PÃ¡gina-1" id="NEQgWIk9QpvAiJrSeUvo">
    <mxGraphModel>
      <root>
        <mxCell id="0" />
        <mxCell id="1" parent="0" />
      </root>
    </mxGraphModel>
  </diagram>
</mxfile>
